<svg width="42" height="40" fill="none" xmlns="http://www.w3.org/2000/svg"><path d="m11 12.429-10 10 10 10M31 12.429l10 10-10 10" stroke="#000" stroke-width="2" stroke-linecap="round" stroke-linejoin="round"/><path d="m24.535 5.043-8.587 32.046a.816.816 0 0 1-1.577-.422L22.958 4.62a.816.816 0 0 1 1.577.423Z" fill="#000"/><path d="M22.958 4.62a.816.816 0 0 1 1.577.423l-1.046 3.903-1.577-.423 1.046-3.903Z" fill="#D9D9D9"/><path d="m25.695 7.022 3.154.846M17.81 4.91l3.154.845M19.646 1.211l1.637 2.81M17.587 8.896l2.822-1.614M25.276 8.586l1.637 2.81M26.15 5.324l2.823-1.614" stroke="#000" stroke-linecap="round"/></svg>