<svg aria-hidden="true" style="width:0;height:0;position:absolute;overflow:hidden" xmlns="http://www.w3.org/2000/svg"><defs><symbol id="icon-logo" viewBox="0 0 75 32"><path style="stroke:var(--color1,#000)" stroke-linejoin="round" stroke-linecap="round" stroke-width=".914" d="m8.734 9.943-7.94 8 7.94 8M24.614 9.943l7.94 8-7.94 8"/><path style="fill:var(--color1,#000)" d="m19.48 4.034-6.818 25.637a.649.649 0 1 1-1.252-.338l6.818-25.637a.649.649 0 1 1 1.252.338z"/><path style="fill:var(--color2,#d9d9d9)" d="M18.228 3.696a.649.649 0 1 1 1.252.338l-.83 3.123-1.252-.338.83-3.123z"/><path stroke="#000" style="stroke:var(--color1,#000)" stroke-linecap="round" stroke-width=".686" d="m20.401 5.618 2.504.676M14.141 3.928l2.504.676M15.598.969l1.3 2.247M13.963 7.117l2.241-1.291M20.068 6.869l1.3 2.247M20.762 4.26l2.241-1.291"/><path style="fill:var(--color1,#000)" d="M43.682 12.058a3.635 3.635 0 0 1-1.791-.442 3.276 3.276 0 0 1-1.248-1.219c-.299-.525-.448-1.11-.448-1.757s.149-1.229.448-1.747c.305-.525.724-.934 1.258-1.229s1.131-.442 1.791-.442c.495 0 .953.083 1.372.25s.775.41 1.067.73l-.448.451c-.521-.531-1.178-.797-1.972-.797-.527 0-1.007.122-1.439.365s-.772.576-1.019.998c-.241.422-.362.896-.362 1.421s.121.998.362 1.421c.248.422.588.755 1.019.998s.911.365 1.439.365c.8 0 1.458-.269 1.972-.806l.448.451a2.93 2.93 0 0 1-1.077.739c-.419.166-.877.25-1.372.25zm5.634-.01c-.483 0-.917-.109-1.305-.326-.388-.224-.692-.531-.915-.922s-.333-.832-.333-1.325.111-.934.333-1.325c.223-.39.527-.694.915-.912s.822-.326 1.305-.326.918.109 1.306.326.689.522.905.912c.222.39.333.832.333 1.325s-.111.934-.333 1.325a2.38 2.38 0 0 1-.905.922 2.618 2.618 0 0 1-1.306.326zm0-.605c.356 0 .673-.08.953-.24.286-.166.508-.4.667-.701s.238-.643.238-1.027-.08-.726-.238-1.027a1.66 1.66 0 0 0-.667-.691c-.28-.166-.597-.25-.953-.25s-.676.083-.962.25c-.279.16-.502.39-.667.691-.159.301-.238.643-.238 1.027s.08.726.238 1.027c.166.301.388.534.667.701.286.16.607.24.962.24zm8.498-6.566V12h-.648v-.998a2.065 2.065 0 0 1-.81.778 2.324 2.324 0 0 1-1.125.269c-.47 0-.896-.109-1.277-.326s-.679-.522-.896-.912c-.216-.39-.324-.835-.324-1.334s.108-.944.324-1.334a2.26 2.26 0 0 1 .896-.902 2.525 2.525 0 0 1 1.277-.326c.407 0 .772.086 1.096.259.331.166.6.413.81.739V4.879h.677zm-2.525 6.566c.35 0 .664-.08.944-.24.286-.166.508-.4.667-.701.165-.301.248-.643.248-1.027s-.083-.726-.248-1.027a1.66 1.66 0 0 0-.667-.691 1.815 1.815 0 0 0-.944-.25 1.87 1.87 0 0 0-.962.25c-.279.16-.502.39-.667.691-.159.301-.238.643-.238 1.027s.08.726.238 1.027c.166.301.388.534.667.701.286.16.607.24.962.24zm4.409-4.493h.676V12h-.676V6.95zm.343-1.104c-.14 0-.257-.048-.352-.144a.474.474 0 0 1 0-.682c.095-.096.213-.144.352-.144s.257.048.352.144c.096.09.143.198.143.326 0 .141-.048.259-.143.355s-.213.144-.352.144zm4.77 1.066c.629 0 1.127.186 1.496.557.375.365.562.899.562 1.603V12h-.677V9.139c0-.525-.13-.925-.391-1.2s-.632-.413-1.115-.413c-.54 0-.969.163-1.286.49-.311.32-.467.765-.467 1.334V12h-.677V6.95h.648v.931c.184-.307.438-.544.763-.71.33-.173.711-.259 1.143-.259zm8.553.038v4.435c0 .858-.21 1.491-.629 1.901-.413.416-1.039.624-1.877.624-.464 0-.905-.07-1.324-.211-.413-.134-.749-.323-1.01-.566l.343-.518c.241.218.534.387.877.509a3.3 3.3 0 0 0 1.096.182c.635 0 1.102-.15 1.4-.451.299-.294.448-.755.448-1.382v-.643c-.209.32-.486.563-.829.73-.337.166-.711.25-1.125.25-.47 0-.899-.102-1.286-.307a2.374 2.374 0 0 1-.905-.874c-.216-.378-.324-.803-.324-1.277s.108-.896.324-1.267c.222-.371.524-.659.905-.864s.81-.307 1.286-.307c.426 0 .81.086 1.153.259s.619.422.829.749v-.97h.648zM70.8 11.203c.362 0 .689-.077.981-.23.292-.16.517-.381.677-.662.165-.282.248-.602.248-.96s-.083-.675-.248-.95a1.627 1.627 0 0 0-.677-.653 1.975 1.975 0 0 0-.981-.24c-.362 0-.689.077-.981.23a1.707 1.707 0 0 0-.677.653c-.159.282-.238.602-.238.96s.079.678.238.96c.165.282.39.502.677.662.292.154.619.23.981.23zM61.897 18.762c-.133.197-.282.433-.447.708a26.934 26.934 0 0 0-.996 1.832 34.627 34.627 0 0 0-.823 1.857 54.136 54.136 0 0 0-.586 1.496c-.031.078-.087.117-.168.117a.166.166 0 0 1-.107-.037.194.194 0 0 1-.06-.103l-.047-.197a42.23 42.23 0 0 0-.116-.52l-.172-.75c-.062-.284-.128-.58-.2-.886l-.209-.938c-.071-.316-.138-.616-.2-.9a17.964 17.964 0 0 1-.628 1.57 9.27 9.27 0 0 1-.642 1.186c-.22.334-.448.616-.684.844a3.373 3.373 0 0 1-.735.553 2.94 2.94 0 0 1-.805.295 4.285 4.285 0 0 1-.888.089c-.161 0-.334-.019-.517-.056-.183-.034-.364-.089-.544-.164s-.352-.169-.517-.281a1.925 1.925 0 0 1-.74-.923 1.854 1.854 0 0 1-.112-.656c0-.253.053-.484.158-.694.106-.212.248-.394.428-.544.18-.153.387-.272.623-.356.239-.084.49-.127.754-.127.192 0 .364.017.516.052.155.031.292.072.41.122s.218.105.302.164c.084.059.154.114.209.164s.096.094.121.131a.28.28 0 0 0 .042.052.212.212 0 0 1 .028.098.18.18 0 0 1-.051.122.156.156 0 0 1-.126.056.174.174 0 0 1-.149-.08 7.08 7.08 0 0 1-.075-.084c-.046-.056-.123-.117-.228-.183s-.242-.125-.41-.178a1.988 1.988 0 0 0-.605-.08c-.217 0-.423.034-.618.103a1.574 1.574 0 0 0-.507.281 1.424 1.424 0 0 0-.345.436 1.194 1.194 0 0 0-.125.548c0 .197.032.377.097.539s.152.308.261.436c.109.128.234.239.377.333a2.475 2.475 0 0 0 1.359.412c.236 0 .465-.017.688-.052.227-.038.448-.106.666-.206.22-.1.436-.238.646-.412s.42-.403.628-.684c.208-.281.412-.62.614-1.017a13.45 13.45 0 0 0 .795-1.931c.058-.188.119-.377.181-.567a11.73 11.73 0 0 1-.117-.703 4.396 4.396 0 0 1-.032-.483c0-.137.011-.247.032-.328s.05-.142.084-.183a.204.204 0 0 1 .112-.08.375.375 0 0 1 .116-.019c.031 0 .065.006.102.019a.21.21 0 0 1 .107.084c.034.041.062.102.084.183s.032.191.032.328c0 .15-.014.323-.042.52s-.07.414-.126.652c.04.191.087.403.139.637l.163.731.172.769.172.769.158.717.144.619c.084-.213.186-.469.307-.769a39.75 39.75 0 0 1 .875-1.997c.167-.353.338-.686.512-.998a19.576 19.576 0 0 1 1.205-1.927 6.599 6.599 0 0 1 .489-.619.172.172 0 0 1 .126-.052c.053 0 .095.019.125.056a.167.167 0 0 1 .037.188 13.875 13.875 0 0 0-.727 2.471 8.284 8.284 0 0 0-.125 1.153 6.882 6.882 0 0 0 .019 1.012c.019.209.05.411.093.605s.102.377.176.548c.075.169.166.317.275.445s.237.231.386.309c.152.078.327.12.526.127a.145.145 0 0 1 .116.066c.031.038.047.078.047.122s-.017.083-.051.117a.167.167 0 0 1-.121.052.835.835 0 0 1-.149-.014 1.645 1.645 0 0 1-.591-.192c-.17-.1-.318-.222-.442-.366a2.132 2.132 0 0 1-.312-.497c-.08-.187-.146-.387-.195-.6s-.086-.433-.107-.661a8.518 8.518 0 0 1 .014-1.532c.028-.278.065-.548.112-.811.046-.266.101-.522.163-.769s.126-.477.191-.689zm5.355 4.73-.079.159a3.214 3.214 0 0 1-.149.272c-.059.103-.129.211-.209.323s-.171.216-.27.309-.206.172-.321.234a.781.781 0 0 1-.362.089.646.646 0 0 1-.456-.173 1.022 1.022 0 0 1-.265-.436c-.105.178-.231.32-.377.427a.757.757 0 0 1-.438.155.765.765 0 0 1-.312-.061.712.712 0 0 1-.237-.178.892.892 0 0 1-.204-.609c0-.244.04-.458.121-.642.084-.188.189-.344.316-.469s.267-.219.419-.281c.155-.063.304-.094.447-.094a1.086 1.086 0 0 1 .47.126.669.669 0 0 1 .135.089l.051.042a.197.197 0 0 1 .051.127.185.185 0 0 1-.051.127.167.167 0 0 1-.121.052.168.168 0 0 1-.126-.052.438.438 0 0 0-.042-.033c-.022-.019-.051-.037-.088-.056s-.082-.034-.135-.047a.564.564 0 0 0-.172-.023c-.096 0-.198.022-.307.066s-.208.112-.298.206c-.09.091-.166.206-.228.347a1.243 1.243 0 0 0-.069.675c.012.059.034.114.065.164s.073.091.126.122a.382.382 0 0 0 .196.047.428.428 0 0 0 .191-.056.652.652 0 0 0 .209-.173c.068-.078.128-.177.181-.295a1.44 1.44 0 0 0 .116-.422.164.164 0 0 1 .06-.108.175.175 0 0 1 .121-.047c.043 0 .08.017.112.052a.18.18 0 0 1 .056.117c.003.059.01.144.019.253.009.106.029.213.06.319.034.106.084.198.149.277s.155.117.27.117c.075 0 .147-.02.219-.061.074-.041.145-.094.214-.159.071-.069.138-.145.2-.23a3.366 3.366 0 0 0 .316-.516c.041-.081.075-.151.102-.211a.192.192 0 0 1 .065-.08.184.184 0 0 1 .097-.028.15.15 0 0 1 .126.061.177.177 0 0 1 .051.122.174.174 0 0 1-.014.066zm1.362 1.767c.583-.766.988-1.401 1.215-1.908a.162.162 0 0 1 .153-.103c.053 0 .096.019.13.056a.167.167 0 0 1 .037.188c-.137.313-.331.661-.582 1.045s-.569.819-.954 1.303c0 .197.002.394.005.591s.005.412.005.647c0 .234-.006.466-.019.694a6.86 6.86 0 0 1-.056.656 4.261 4.261 0 0 1-.116.577 1.759 1.759 0 0 1-.186.459.877.877 0 0 1-.274.305.635.635 0 0 1-.377.113c-.208 0-.368-.08-.48-.239s-.167-.386-.167-.68c0-.156.014-.327.042-.511.031-.181.074-.369.13-.563s.123-.391.2-.591c.081-.197.169-.389.265-.577s.2-.367.312-.539c.115-.172.236-.328.363-.469.003-.219.005-.436.005-.652.003-.216.008-.414.014-.595a1.038 1.038 0 0 1-.335.281.791.791 0 0 1-.381.103.71.71 0 0 1-.298-.061.689.689 0 0 1-.223-.178c-.062-.078-.11-.169-.144-.272s-.051-.216-.051-.337c0-.244.04-.458.121-.642.084-.188.189-.344.316-.469s.266-.219.419-.281c.155-.063.304-.094.447-.094.096 0 .184.012.265.038s.149.053.204.084a.669.669 0 0 1 .186.136.184.184 0 0 1 0 .254.167.167 0 0 1-.121.052.193.193 0 0 1-.126-.052l-.051-.038a.466.466 0 0 0-.195-.103.594.594 0 0 0-.158-.019.842.842 0 0 0-.307.066c-.112.041-.215.106-.312.197s-.176.208-.242.352a1.213 1.213 0 0 0-.097.511c0 .15.032.272.097.366.065.091.166.136.303.136a.443.443 0 0 0 .204-.056c.075-.037.146-.095.214-.173s.127-.177.176-.295c.053-.119.09-.259.112-.422a.164.164 0 0 1 .06-.108.175.175 0 0 1 .121-.047c.053 0 .093.019.121.056.031.038.047.08.047.127l-.005.145-.01.366-.014.534-.01.637zm-.353 1.027a4.62 4.62 0 0 0-.395.661 6.177 6.177 0 0 0-.498 1.435 3.423 3.423 0 0 0-.065.619c0 .116.01.208.028.277a.538.538 0 0 0 .074.159.237.237 0 0 0 .098.075.336.336 0 0 0 .102.019c.096 0 .18-.039.251-.117s.132-.183.181-.314c.05-.128.09-.277.121-.445s.054-.344.07-.525c.016-.178.026-.356.032-.534s.009-.342.009-.492v-.403c0-.134-.003-.272-.009-.412zm2.331-5.166c0 .119-.042.22-.126.305-.081.081-.18.122-.298.122a.417.417 0 0 1-.423-.427c0-.059.011-.114.033-.164a.425.425 0 0 1 .223-.23.433.433 0 0 1 .33 0 .378.378 0 0 1 .135.094c.04.038.071.083.093.136.022.05.033.105.033.164zm-.754 2.747c0-.45.028-.898.084-1.345a.19.19 0 0 1 .056-.112.178.178 0 0 1 .13-.052c.047 0 .085.019.117.056a.175.175 0 0 1 .046.122c0 .019-.005.075-.014.169a24.991 24.991 0 0 0-.056.75 9.73 9.73 0 0 0-.01.398c0 .166.016.3.047.403.034.1.076.178.126.234a.4.4 0 0 0 .163.112.546.546 0 0 0 .167.028c.087 0 .177-.031.27-.094s.187-.15.283-.262c.1-.113.199-.247.298-.403.099-.159.197-.336.293-.53a.158.158 0 0 1 .065-.07.162.162 0 0 1 .093-.028c.049 0 .09.019.121.056a.18.18 0 0 1 .033.202c-.037.072-.084.159-.14.262a4.546 4.546 0 0 1-.428.647 2.5 2.5 0 0 1-.27.291c-.096.084-.197.153-.303.206s-.212.08-.321.08c-.139 0-.262-.03-.368-.089s-.195-.139-.27-.239a1.108 1.108 0 0 1-.163-.352 1.827 1.827 0 0 1-.051-.441zm.493-2.747a.15.15 0 0 0-.051-.113.146.146 0 0 0-.224 0c-.031.031-.047.069-.047.113s.016.081.047.112.068.047.112.047.081-.016.112-.047a.147.147 0 0 0 .051-.112zm4.545 2.382a15.11 15.11 0 0 0-.097.187 2.472 2.472 0 0 1-.181.309c-.075.113-.165.23-.27.352s-.227.234-.363.337c-.137.1-.29.183-.461.248a1.48 1.48 0 0 1-.549.098c-.176 0-.333-.033-.469-.098a.973.973 0 0 1-.349-.267c-.096-.119-.169-.258-.219-.417s-.075-.336-.075-.53c0-.187.026-.362.079-.525.053-.166.124-.309.214-.431.093-.122.2-.217.321-.286a.744.744 0 0 1 .665-.052.568.568 0 0 1 .209.141.63.63 0 0 1 .186.413c0 .069-.01.133-.028.192a.63.63 0 0 1-.065.159.381.381 0 0 1-.088.108.172.172 0 0 1-.232-.014.183.183 0 0 1-.033-.193l.037-.056a.327.327 0 0 0 .055-.192c0-.066-.031-.125-.093-.178a.329.329 0 0 0-.228-.08.45.45 0 0 0-.251.08.757.757 0 0 0-.204.216 1.154 1.154 0 0 0-.144.314 1.412 1.412 0 0 0-.004.746c.031.116.078.219.139.309.062.088.14.158.233.211.096.053.209.08.34.08.167 0 .323-.03.465-.089.143-.062.273-.141.391-.234s.222-.195.312-.305c.09-.113.166-.217.228-.314a2.283 2.283 0 0 0 .214-.399.136.136 0 0 1 .061-.07.184.184 0 0 1 .097-.028c.053 0 .095.019.126.056.034.038.051.08.051.127a.204.204 0 0 1-.019.075z"/></symbol><symbol id="icon-user" viewBox="0 0 32 32"><path d="M18 22.082v-1.649c2.203-1.241 4-4.337 4-7.432 0-4.971 0-9-6-9s-6 4.029-6 9c0 3.096 1.797 6.191 4 7.432v1.649C7.216 22.637 2 25.97 2 30h28c0-4.03-5.216-7.364-12-7.918z"/></symbol><symbol id="icon-search" viewBox="0 0 32 32"><path d="m31.008 27.231-7.58-6.447c-.784-.705-1.622-1.029-2.299-.998a11.954 11.954 0 0 0 2.87-7.787c0-6.627-5.373-12-12-12s-12 5.373-12 12 5.373 12 12 12c2.972 0 5.691-1.081 7.787-2.87-.031.677.293 1.515.998 2.299l6.447 7.58c1.104 1.226 2.907 1.33 4.007.23s.997-2.903-.23-4.007zM12 20a8 8 0 1 1 0-16 8 8 0 0 1 0 16z"/></symbol><symbol id="icon-cross" viewBox="0 0 32 32"><path d="M31.708 25.708 22 16l9.708-9.708a1 1 0 0 0 0-1.414L27.122.292a1 1 0 0 0-1.414-.001L16 9.999 6.292.291a.998.998 0 0 0-1.414.001L.292 4.878a1 1 0 0 0 0 1.414L10 16 .292 25.708a.999.999 0 0 0 0 1.414l4.586 4.586a1 1 0 0 0 1.414 0L16 22l9.708 9.708a1 1 0 0 0 1.414 0l4.586-4.586a.999.999 0 0 0 0-1.414z"/></symbol><symbol id="icon-ctrl" viewBox="0 0 32 32"><path d="M23 14c-.278 0-.555-.116-.753-.341L16 6.519l-6.247 7.14a1 1 0 1 1-1.505-1.317l7-8a1 1 0 0 1 1.506 0l7 8A1 1 0 0 1 23.002 14z"/></symbol></defs></svg>