<svg width="42" height="40" viewBox="0 0 42 40" fill="none" xmlns="http://www.w3.org/2000/svg">
<path d="M11 12.4286L1 22.4286L11 32.4286" stroke="black" stroke-width="2" stroke-linecap="round" stroke-linejoin="round"/>
<path d="M31 12.4286L41 22.4286L31 32.4286" stroke="black" stroke-width="2" stroke-linecap="round" stroke-linejoin="round"/>
<path d="M24.5349 5.04261L15.9481 37.089C15.8314 37.5245 15.3838 37.7829 14.9483 37.6662C14.5129 37.5496 14.2544 37.1019 14.3711 36.6665L22.9579 4.62005C23.0746 4.18457 23.5222 3.92614 23.9577 4.04282C24.3932 4.15951 24.6516 4.60713 24.5349 5.04261Z" fill="black"/>
<path d="M22.9579 4.62005C23.0746 4.18457 23.5222 3.92614 23.9577 4.04282C24.3932 4.15951 24.6516 4.60713 24.5349 5.04262L23.4891 8.94574L21.9121 8.52318L22.9579 4.62005Z" fill="#D9D9D9"/>
<path d="M25.6947 7.02246L28.8487 7.86758" stroke="black" stroke-linecap="round"/>
<path d="M17.8096 4.90967L20.9636 5.75479" stroke="black" stroke-linecap="round"/>
<path d="M19.6457 1.2113L21.2833 4.02056" stroke="black" stroke-linecap="round"/>
<path d="M17.5865 8.89648L20.4093 7.28242" stroke="black" stroke-linecap="round"/>
<path d="M25.2756 8.58643L26.9133 11.3957" stroke="black" stroke-linecap="round"/>
<path d="M26.1497 5.32446L28.9725 3.7104" stroke="black" stroke-linecap="round"/>
</svg>
