<svg aria-hidden="true" style="position: absolute; width: 0; height: 0; overflow: hidden;" version="1.1" xmlns="http://www.w3.org/2000/svg" xmlns:xlink="http://www.w3.org/1999/xlink">
<defs>
<symbol id="icon-logo" viewBox="0 0 75 32">
<path style="stroke: var(--color1, #000)" stroke-linejoin="round" stroke-linecap="round" stroke-miterlimit="4" stroke-width="0.9143" d="M8.734 9.943l-7.94 8 7.94 8"></path>
<path style="stroke: var(--color1, #000)" stroke-linejoin="round" stroke-linecap="round" stroke-miterlimit="4" stroke-width="0.9143" d="M24.614 9.943l7.94 8-7.94 8"></path>
<path style="fill: var(--color1, #000)" d="M19.48 4.034l-6.818 25.637c-0.093 0.348-0.448 0.555-0.794 0.462s-0.551-0.451-0.458-0.8l6.818-25.637c0.093-0.348 0.448-0.555 0.794-0.462s0.551 0.451 0.458 0.8z"></path>
<path style="fill: var(--color2, #d9d9d9)" d="M18.228 3.696c0.093-0.348 0.448-0.555 0.794-0.462s0.551 0.451 0.458 0.8l-0.83 3.123-1.252-0.338 0.83-3.123z"></path>
<path stroke="#000" style="stroke: var(--color1, #000)" stroke-linejoin="miter" stroke-linecap="round" stroke-miterlimit="4" stroke-width="0.6857" d="M20.401 5.618l2.504 0.676"></path>
<path stroke="#000" style="stroke: var(--color1, #000)" stroke-linejoin="miter" stroke-linecap="round" stroke-miterlimit="4" stroke-width="0.6857" d="M14.141 3.928l2.504 0.676"></path>
<path stroke="#000" style="stroke: var(--color1, #000)" stroke-linejoin="miter" stroke-linecap="round" stroke-miterlimit="4" stroke-width="0.6857" d="M15.598 0.969l1.3 2.247"></path>
<path stroke="#000" style="stroke: var(--color1, #000)" stroke-linejoin="miter" stroke-linecap="round" stroke-miterlimit="4" stroke-width="0.6857" d="M13.963 7.117l2.241-1.291"></path>
<path stroke="#000" style="stroke: var(--color1, #000)" stroke-linejoin="miter" stroke-linecap="round" stroke-miterlimit="4" stroke-width="0.6857" d="M20.068 6.869l1.3 2.247"></path>
<path stroke="#000" style="stroke: var(--color1, #000)" stroke-linejoin="miter" stroke-linecap="round" stroke-miterlimit="4" stroke-width="0.6857" d="M20.762 4.26l2.241-1.291"></path>
<path style="fill: var(--color1, #000)" d="M43.682 12.058c-0.661 0-1.258-0.147-1.791-0.442-0.527-0.294-0.943-0.701-1.248-1.219-0.299-0.525-0.448-1.11-0.448-1.757s0.149-1.229 0.448-1.747c0.305-0.525 0.724-0.934 1.258-1.229s1.131-0.442 1.791-0.442c0.495 0 0.953 0.083 1.372 0.25s0.775 0.41 1.067 0.73l-0.448 0.451c-0.521-0.531-1.178-0.797-1.972-0.797-0.527 0-1.007 0.122-1.439 0.365s-0.772 0.576-1.019 0.998c-0.241 0.422-0.362 0.896-0.362 1.421s0.121 0.998 0.362 1.421c0.248 0.422 0.588 0.755 1.019 0.998s0.911 0.365 1.439 0.365c0.8 0 1.458-0.269 1.972-0.806l0.448 0.451c-0.293 0.32-0.651 0.566-1.077 0.739-0.419 0.166-0.877 0.25-1.372 0.25zM49.316 12.048c-0.483 0-0.917-0.109-1.305-0.326-0.388-0.224-0.692-0.531-0.915-0.922s-0.333-0.832-0.333-1.325 0.111-0.934 0.333-1.325c0.223-0.39 0.527-0.694 0.915-0.912s0.822-0.326 1.305-0.326c0.483 0 0.918 0.109 1.306 0.326s0.689 0.522 0.905 0.912c0.222 0.39 0.333 0.832 0.333 1.325s-0.111 0.934-0.333 1.325c-0.216 0.39-0.518 0.698-0.905 0.922-0.388 0.218-0.823 0.326-1.306 0.326zM49.316 11.443c0.356 0 0.673-0.080 0.953-0.24 0.286-0.166 0.508-0.4 0.667-0.701s0.238-0.643 0.238-1.027-0.080-0.726-0.238-1.027c-0.159-0.301-0.381-0.531-0.667-0.691-0.28-0.166-0.597-0.25-0.953-0.25s-0.676 0.083-0.962 0.25c-0.279 0.16-0.502 0.39-0.667 0.691-0.159 0.301-0.238 0.643-0.238 1.027s0.080 0.726 0.238 1.027c0.166 0.301 0.388 0.534 0.667 0.701 0.286 0.16 0.607 0.24 0.962 0.24zM57.814 4.877v7.123h-0.648v-0.998c-0.203 0.339-0.473 0.598-0.81 0.778-0.331 0.179-0.705 0.269-1.125 0.269-0.47 0-0.896-0.109-1.277-0.326s-0.679-0.522-0.896-0.912c-0.216-0.39-0.324-0.835-0.324-1.334s0.108-0.944 0.324-1.334c0.216-0.39 0.515-0.691 0.896-0.902 0.381-0.218 0.807-0.326 1.277-0.326 0.407 0 0.772 0.086 1.096 0.259 0.331 0.166 0.6 0.413 0.81 0.739v-3.034h0.677zM55.289 11.443c0.35 0 0.664-0.080 0.944-0.24 0.286-0.166 0.508-0.4 0.667-0.701 0.165-0.301 0.248-0.643 0.248-1.027s-0.083-0.726-0.248-1.027c-0.159-0.301-0.381-0.531-0.667-0.691-0.28-0.166-0.594-0.25-0.944-0.25-0.356 0-0.676 0.083-0.962 0.25-0.279 0.16-0.502 0.39-0.667 0.691-0.159 0.301-0.238 0.643-0.238 1.027s0.080 0.726 0.238 1.027c0.166 0.301 0.388 0.534 0.667 0.701 0.286 0.16 0.607 0.24 0.962 0.24zM59.698 6.95h0.676v5.050h-0.676v-5.050zM60.041 5.846c-0.14 0-0.257-0.048-0.352-0.144s-0.143-0.211-0.143-0.346c0-0.128 0.048-0.24 0.143-0.336s0.213-0.144 0.352-0.144 0.257 0.048 0.352 0.144c0.096 0.090 0.143 0.198 0.143 0.326 0 0.141-0.048 0.259-0.143 0.355s-0.213 0.144-0.352 0.144zM64.811 6.912c0.629 0 1.127 0.186 1.496 0.557 0.375 0.365 0.562 0.899 0.562 1.603v2.928h-0.677v-2.861c0-0.525-0.13-0.925-0.391-1.2s-0.632-0.413-1.115-0.413c-0.54 0-0.969 0.163-1.286 0.49-0.311 0.32-0.467 0.765-0.467 1.334v2.65h-0.677v-5.050h0.648v0.931c0.184-0.307 0.438-0.544 0.763-0.71 0.33-0.173 0.711-0.259 1.143-0.259zM73.364 6.95v4.435c0 0.858-0.21 1.491-0.629 1.901-0.413 0.416-1.039 0.624-1.877 0.624-0.464 0-0.905-0.070-1.324-0.211-0.413-0.134-0.749-0.323-1.010-0.566l0.343-0.518c0.241 0.218 0.534 0.387 0.877 0.509 0.349 0.122 0.715 0.182 1.096 0.182 0.635 0 1.102-0.15 1.4-0.451 0.299-0.294 0.448-0.755 0.448-1.382v-0.643c-0.209 0.32-0.486 0.563-0.829 0.73-0.337 0.166-0.711 0.25-1.125 0.25-0.47 0-0.899-0.102-1.286-0.307-0.381-0.211-0.683-0.502-0.905-0.874-0.216-0.378-0.324-0.803-0.324-1.277s0.108-0.896 0.324-1.267c0.222-0.371 0.524-0.659 0.905-0.864s0.81-0.307 1.286-0.307c0.426 0 0.81 0.086 1.153 0.259s0.619 0.422 0.829 0.749v-0.97h0.648zM70.8 11.203c0.362 0 0.689-0.077 0.981-0.23 0.292-0.16 0.517-0.381 0.677-0.662 0.165-0.282 0.248-0.602 0.248-0.96s-0.083-0.675-0.248-0.95c-0.159-0.282-0.384-0.499-0.677-0.653-0.286-0.16-0.613-0.24-0.981-0.24-0.362 0-0.689 0.077-0.981 0.23-0.286 0.154-0.512 0.371-0.677 0.653-0.159 0.282-0.238 0.602-0.238 0.96s0.079 0.678 0.238 0.96c0.165 0.282 0.39 0.502 0.677 0.662 0.292 0.154 0.619 0.23 0.981 0.23z"></path>
<path fill="#000" style="fill: var(--color1, #000)" d="M61.897 18.762c-0.133 0.197-0.282 0.433-0.447 0.708s-0.34 0.583-0.526 0.923c-0.158 0.284-0.315 0.588-0.47 0.909-0.152 0.319-0.298 0.636-0.437 0.952-0.14 0.312-0.268 0.614-0.386 0.905-0.118 0.288-0.22 0.542-0.307 0.764-0.087 0.219-0.155 0.395-0.204 0.53-0.050 0.131-0.075 0.198-0.075 0.202-0.031 0.078-0.087 0.117-0.168 0.117-0.040 0-0.076-0.012-0.107-0.037-0.031-0.028-0.051-0.063-0.060-0.103 0-0.003-0.016-0.069-0.047-0.197-0.028-0.131-0.067-0.305-0.116-0.52-0.050-0.219-0.107-0.469-0.172-0.75-0.062-0.284-0.128-0.58-0.2-0.886-0.069-0.309-0.138-0.622-0.209-0.938s-0.138-0.616-0.2-0.9c-0.208 0.591-0.417 1.114-0.628 1.57-0.208 0.453-0.422 0.848-0.642 1.186-0.22 0.334-0.448 0.616-0.684 0.844-0.233 0.228-0.478 0.412-0.735 0.553-0.254 0.138-0.523 0.236-0.805 0.295-0.279 0.059-0.575 0.089-0.888 0.089-0.161 0-0.334-0.019-0.517-0.056-0.183-0.034-0.364-0.089-0.544-0.164s-0.352-0.169-0.517-0.281c-0.164-0.113-0.31-0.245-0.437-0.398-0.127-0.156-0.228-0.331-0.303-0.525-0.074-0.197-0.112-0.416-0.112-0.656 0-0.253 0.053-0.484 0.158-0.694 0.106-0.212 0.248-0.394 0.428-0.544 0.18-0.153 0.387-0.272 0.623-0.356 0.239-0.084 0.49-0.127 0.754-0.127 0.192 0 0.364 0.017 0.516 0.052 0.155 0.031 0.292 0.072 0.41 0.122s0.218 0.105 0.302 0.164c0.084 0.059 0.154 0.114 0.209 0.164s0.096 0.094 0.121 0.131c0.025 0.034 0.039 0.052 0.042 0.052 0.018 0.034 0.028 0.067 0.028 0.098 0 0.044-0.017 0.084-0.051 0.122-0.031 0.037-0.073 0.056-0.126 0.056-0.062 0-0.112-0.027-0.149-0.080-0.003-0.003-0.028-0.031-0.075-0.084-0.046-0.056-0.123-0.117-0.228-0.183s-0.242-0.125-0.41-0.178c-0.164-0.053-0.366-0.080-0.605-0.080-0.217 0-0.423 0.034-0.618 0.103-0.192 0.066-0.362 0.159-0.507 0.281-0.143 0.122-0.258 0.267-0.345 0.436-0.084 0.166-0.125 0.348-0.125 0.548 0 0.197 0.032 0.377 0.097 0.539s0.152 0.308 0.261 0.436c0.109 0.128 0.234 0.239 0.377 0.333s0.291 0.172 0.447 0.234c0.155 0.059 0.31 0.105 0.465 0.136 0.158 0.028 0.307 0.042 0.447 0.042 0.236 0 0.465-0.017 0.688-0.052 0.227-0.038 0.448-0.106 0.666-0.206 0.22-0.1 0.436-0.238 0.646-0.412s0.42-0.403 0.628-0.684c0.208-0.281 0.412-0.62 0.614-1.017 0.205-0.397 0.41-0.866 0.614-1.406 0.062-0.162 0.123-0.337 0.181-0.525s0.119-0.377 0.181-0.567c-0.053-0.275-0.092-0.509-0.117-0.703-0.022-0.194-0.032-0.355-0.032-0.483 0-0.137 0.011-0.247 0.032-0.328s0.050-0.142 0.084-0.183c0.034-0.044 0.071-0.070 0.112-0.080 0.040-0.013 0.079-0.019 0.116-0.019 0.031 0 0.065 0.006 0.102 0.019 0.040 0.012 0.076 0.041 0.107 0.084 0.034 0.041 0.062 0.102 0.084 0.183s0.032 0.191 0.032 0.328c0 0.15-0.014 0.323-0.042 0.52s-0.070 0.414-0.126 0.652c0.040 0.191 0.087 0.403 0.139 0.637s0.107 0.478 0.163 0.731c0.056 0.25 0.113 0.506 0.172 0.769s0.116 0.519 0.172 0.769c0.056 0.25 0.108 0.489 0.158 0.717 0.053 0.228 0.101 0.434 0.144 0.619 0.084-0.213 0.186-0.469 0.307-0.769 0.121-0.303 0.256-0.623 0.405-0.961 0.149-0.341 0.305-0.686 0.47-1.036 0.167-0.353 0.338-0.686 0.512-0.998 0.245-0.444 0.47-0.823 0.675-1.139 0.205-0.319 0.382-0.581 0.53-0.788s0.265-0.358 0.349-0.455c0.087-0.1 0.133-0.155 0.14-0.164 0.034-0.034 0.076-0.052 0.126-0.052 0.053 0 0.095 0.019 0.125 0.056 0.034 0.034 0.051 0.075 0.051 0.122 0 0.022-0.005 0.044-0.014 0.066 0 0.003-0.019 0.050-0.056 0.141-0.034 0.087-0.079 0.209-0.135 0.366-0.053 0.153-0.112 0.334-0.177 0.544-0.065 0.206-0.129 0.43-0.191 0.67-0.062 0.237-0.118 0.488-0.168 0.75-0.047 0.259-0.080 0.519-0.102 0.778-0.009 0.119-0.017 0.244-0.023 0.375-0.006 0.128-0.009 0.258-0.009 0.389 0 0.206 0.009 0.414 0.028 0.623s0.050 0.411 0.093 0.605c0.043 0.194 0.102 0.377 0.176 0.548 0.075 0.169 0.166 0.317 0.275 0.445s0.237 0.231 0.386 0.309c0.152 0.078 0.327 0.12 0.526 0.127 0.049 0.003 0.088 0.025 0.116 0.066 0.031 0.038 0.047 0.078 0.047 0.122s-0.017 0.083-0.051 0.117c-0.034 0.034-0.075 0.052-0.121 0.052-0.050 0-0.099-0.005-0.149-0.014-0.223-0.031-0.42-0.095-0.591-0.192-0.17-0.1-0.318-0.222-0.442-0.366-0.124-0.147-0.228-0.312-0.312-0.497-0.080-0.187-0.146-0.387-0.195-0.6s-0.086-0.433-0.107-0.661c-0.019-0.231-0.028-0.464-0.028-0.698 0-0.278 0.014-0.556 0.042-0.834s0.065-0.548 0.112-0.811c0.046-0.266 0.101-0.522 0.163-0.769s0.126-0.477 0.191-0.689zM67.252 23.492c-0.013 0.025-0.039 0.078-0.079 0.159-0.037 0.078-0.087 0.169-0.149 0.272-0.059 0.103-0.129 0.211-0.209 0.323s-0.171 0.216-0.27 0.309-0.206 0.172-0.321 0.234c-0.115 0.059-0.235 0.089-0.362 0.089-0.18 0-0.332-0.058-0.456-0.173-0.121-0.116-0.209-0.261-0.265-0.436-0.105 0.178-0.231 0.32-0.377 0.427-0.146 0.103-0.292 0.155-0.438 0.155-0.115 0-0.219-0.020-0.312-0.061-0.093-0.044-0.172-0.103-0.237-0.178-0.065-0.078-0.116-0.169-0.153-0.272-0.034-0.103-0.051-0.216-0.051-0.337 0-0.244 0.040-0.458 0.121-0.642 0.084-0.188 0.189-0.344 0.316-0.469s0.267-0.219 0.419-0.281c0.155-0.063 0.304-0.094 0.447-0.094 0.096 0 0.185 0.014 0.265 0.042 0.081 0.025 0.149 0.053 0.205 0.084 0.059 0.031 0.104 0.061 0.135 0.089 0.031 0.025 0.048 0.039 0.051 0.042 0.034 0.041 0.051 0.083 0.051 0.127 0 0.047-0.017 0.089-0.051 0.127-0.034 0.034-0.075 0.052-0.121 0.052-0.050 0-0.092-0.017-0.126-0.052-0.006-0.006-0.020-0.017-0.042-0.033-0.022-0.019-0.051-0.037-0.088-0.056s-0.082-0.034-0.135-0.047c-0.050-0.016-0.107-0.023-0.172-0.023-0.096 0-0.198 0.022-0.307 0.066s-0.208 0.112-0.298 0.206c-0.090 0.091-0.166 0.206-0.228 0.347-0.059 0.137-0.088 0.302-0.088 0.492 0 0.059 0.006 0.12 0.019 0.183 0.012 0.059 0.034 0.114 0.065 0.164s0.073 0.091 0.126 0.122c0.053 0.031 0.118 0.047 0.196 0.047 0.056 0 0.119-0.019 0.191-0.056 0.075-0.037 0.144-0.095 0.209-0.173 0.068-0.078 0.128-0.177 0.181-0.295 0.056-0.119 0.094-0.259 0.116-0.422 0.006-0.044 0.026-0.080 0.060-0.108 0.034-0.031 0.075-0.047 0.121-0.047 0.043 0 0.080 0.017 0.112 0.052 0.034 0.034 0.053 0.073 0.056 0.117 0.003 0.059 0.010 0.144 0.019 0.253 0.009 0.106 0.029 0.213 0.060 0.319 0.034 0.106 0.084 0.198 0.149 0.277s0.155 0.117 0.27 0.117c0.075 0 0.147-0.020 0.219-0.061 0.074-0.041 0.145-0.094 0.214-0.159 0.071-0.069 0.138-0.145 0.2-0.23 0.065-0.088 0.124-0.175 0.177-0.263s0.099-0.172 0.139-0.253c0.041-0.081 0.075-0.151 0.102-0.211 0.016-0.034 0.037-0.061 0.065-0.080 0.031-0.019 0.064-0.028 0.097-0.028 0.053 0 0.095 0.020 0.126 0.061 0.034 0.037 0.051 0.078 0.051 0.122 0 0.022-0.005 0.044-0.014 0.066zM68.614 25.259c0.583-0.766 0.988-1.401 1.215-1.908 0.015-0.034 0.036-0.059 0.060-0.075 0.028-0.019 0.059-0.028 0.093-0.028 0.053 0 0.096 0.019 0.13 0.056 0.034 0.034 0.051 0.075 0.051 0.122 0 0.022-0.005 0.044-0.014 0.066-0.137 0.313-0.331 0.661-0.582 1.045s-0.569 0.819-0.954 1.303c0 0.197 0.002 0.394 0.005 0.591s0.005 0.412 0.005 0.647c0 0.234-0.006 0.466-0.019 0.694-0.009 0.231-0.028 0.45-0.056 0.656-0.028 0.209-0.067 0.401-0.116 0.577-0.047 0.178-0.109 0.331-0.186 0.459-0.074 0.131-0.166 0.233-0.274 0.305-0.106 0.075-0.231 0.113-0.377 0.113-0.208 0-0.368-0.080-0.48-0.239s-0.167-0.386-0.167-0.68c0-0.156 0.014-0.327 0.042-0.511 0.031-0.181 0.074-0.369 0.13-0.563s0.123-0.391 0.2-0.591c0.081-0.197 0.169-0.389 0.265-0.577s0.2-0.367 0.312-0.539c0.115-0.172 0.236-0.328 0.363-0.469 0.003-0.219 0.005-0.436 0.005-0.652 0.003-0.216 0.008-0.414 0.014-0.595-0.093 0.119-0.205 0.212-0.335 0.281-0.127 0.069-0.254 0.103-0.381 0.103-0.109 0-0.208-0.020-0.298-0.061-0.087-0.044-0.161-0.103-0.223-0.178-0.062-0.078-0.11-0.169-0.144-0.272s-0.051-0.216-0.051-0.337c0-0.244 0.040-0.458 0.121-0.642 0.084-0.188 0.189-0.344 0.316-0.469s0.266-0.219 0.419-0.281c0.155-0.063 0.304-0.094 0.447-0.094 0.096 0 0.184 0.012 0.265 0.038s0.149 0.053 0.204 0.084c0.059 0.031 0.104 0.061 0.135 0.089s0.048 0.044 0.051 0.047c0.034 0.037 0.051 0.080 0.051 0.127s-0.017 0.089-0.051 0.127c-0.034 0.034-0.075 0.052-0.121 0.052-0.043 0-0.085-0.017-0.126-0.052-0.012-0.009-0.029-0.022-0.051-0.038-0.018-0.019-0.045-0.038-0.079-0.056-0.031-0.019-0.070-0.034-0.116-0.047-0.043-0.012-0.096-0.019-0.158-0.019-0.093 0-0.196 0.022-0.307 0.066-0.112 0.041-0.215 0.106-0.312 0.197s-0.176 0.208-0.242 0.352c-0.065 0.141-0.097 0.311-0.097 0.511 0 0.15 0.032 0.272 0.097 0.366 0.065 0.091 0.166 0.136 0.303 0.136 0.065 0 0.133-0.019 0.204-0.056 0.075-0.037 0.146-0.095 0.214-0.173s0.127-0.177 0.176-0.295c0.053-0.119 0.090-0.259 0.112-0.422 0.006-0.044 0.026-0.080 0.060-0.108 0.034-0.031 0.075-0.047 0.121-0.047 0.053 0 0.093 0.019 0.121 0.056 0.031 0.038 0.047 0.080 0.047 0.127 0 0.003-0.002 0.052-0.005 0.145-0.003 0.091-0.006 0.213-0.010 0.366s-0.008 0.331-0.014 0.534c-0.003 0.2-0.006 0.413-0.010 0.637zM68.261 26.286c-0.146 0.203-0.278 0.423-0.395 0.661-0.118 0.241-0.219 0.483-0.302 0.727s-0.149 0.48-0.196 0.708c-0.043 0.231-0.065 0.437-0.065 0.619 0 0.116 0.010 0.208 0.028 0.277 0.022 0.069 0.046 0.122 0.074 0.159 0.031 0.038 0.064 0.062 0.098 0.075 0.037 0.012 0.071 0.019 0.102 0.019 0.096 0 0.18-0.039 0.251-0.117s0.132-0.183 0.181-0.314c0.050-0.128 0.090-0.277 0.121-0.445s0.054-0.344 0.070-0.525c0.016-0.178 0.026-0.356 0.032-0.534s0.009-0.342 0.009-0.492c0-0.134 0-0.269 0-0.403s-0.003-0.272-0.009-0.412zM70.592 21.12c0 0.119-0.042 0.22-0.126 0.305-0.081 0.081-0.18 0.122-0.298 0.122s-0.219-0.041-0.302-0.122c-0.080-0.084-0.121-0.186-0.121-0.305 0-0.059 0.011-0.114 0.033-0.164 0.022-0.053 0.051-0.098 0.088-0.136 0.040-0.041 0.085-0.072 0.135-0.094 0.053-0.022 0.109-0.033 0.167-0.033s0.113 0.011 0.163 0.033c0.053 0.022 0.097 0.053 0.135 0.094 0.040 0.038 0.071 0.083 0.093 0.136 0.022 0.050 0.033 0.105 0.033 0.164zM69.838 23.867c0-0.45 0.028-0.898 0.084-1.345 0.006-0.044 0.025-0.081 0.056-0.112 0.034-0.034 0.078-0.052 0.13-0.052 0.047 0 0.085 0.019 0.117 0.056 0.031 0.034 0.046 0.075 0.046 0.122 0 0.019-0.005 0.075-0.014 0.169-0.006 0.094-0.016 0.206-0.028 0.337-0.010 0.128-0.019 0.266-0.028 0.413-0.006 0.144-0.010 0.277-0.010 0.398 0 0.166 0.016 0.3 0.047 0.403 0.034 0.1 0.076 0.178 0.126 0.234 0.053 0.056 0.107 0.094 0.163 0.112 0.059 0.019 0.115 0.028 0.167 0.028 0.087 0 0.177-0.031 0.27-0.094s0.187-0.15 0.283-0.262c0.1-0.113 0.199-0.247 0.298-0.403 0.099-0.159 0.197-0.336 0.293-0.53 0.016-0.031 0.037-0.055 0.065-0.070 0.028-0.019 0.059-0.028 0.093-0.028 0.049 0 0.090 0.019 0.121 0.056 0.034 0.038 0.051 0.078 0.051 0.122 0 0.031-0.006 0.058-0.018 0.080-0.037 0.072-0.084 0.159-0.14 0.262s-0.119 0.209-0.191 0.319-0.15 0.219-0.237 0.328c-0.084 0.106-0.174 0.203-0.27 0.291-0.096 0.084-0.197 0.153-0.303 0.206s-0.212 0.080-0.321 0.080c-0.139 0-0.262-0.030-0.368-0.089s-0.195-0.139-0.27-0.239c-0.071-0.1-0.126-0.217-0.163-0.352-0.034-0.137-0.051-0.284-0.051-0.441zM70.331 21.12c0-0.044-0.017-0.081-0.051-0.113-0.031-0.034-0.069-0.052-0.112-0.052s-0.080 0.017-0.112 0.052c-0.031 0.031-0.047 0.069-0.047 0.113s0.016 0.081 0.047 0.112c0.031 0.031 0.068 0.047 0.112 0.047s0.081-0.016 0.112-0.047c0.034-0.031 0.051-0.069 0.051-0.112zM74.876 23.502c-0.018 0.034-0.051 0.097-0.097 0.187-0.043 0.091-0.104 0.194-0.181 0.309-0.075 0.113-0.165 0.23-0.27 0.352s-0.227 0.234-0.363 0.337c-0.137 0.1-0.29 0.183-0.461 0.248-0.167 0.066-0.35 0.098-0.549 0.098-0.176 0-0.333-0.033-0.469-0.098-0.137-0.063-0.253-0.151-0.349-0.267-0.096-0.119-0.169-0.258-0.219-0.417s-0.075-0.336-0.075-0.53c0-0.187 0.026-0.362 0.079-0.525 0.053-0.166 0.124-0.309 0.214-0.431 0.093-0.122 0.2-0.217 0.321-0.286 0.121-0.072 0.25-0.108 0.386-0.108 0.102 0 0.195 0.019 0.279 0.056 0.084 0.034 0.154 0.081 0.209 0.141 0.059 0.059 0.104 0.125 0.135 0.197 0.034 0.072 0.051 0.144 0.051 0.216 0 0.069-0.010 0.133-0.028 0.192-0.016 0.059-0.037 0.112-0.065 0.159-0.025 0.044-0.054 0.080-0.088 0.108-0.034 0.025-0.068 0.038-0.102 0.038-0.053 0-0.096-0.017-0.13-0.052-0.031-0.034-0.047-0.077-0.047-0.127 0-0.025 0.005-0.047 0.014-0.066 0.012-0.019 0.025-0.038 0.037-0.056 0.016-0.022 0.028-0.047 0.037-0.075 0.012-0.031 0.018-0.070 0.018-0.117 0-0.066-0.031-0.125-0.093-0.178-0.059-0.053-0.135-0.080-0.228-0.080-0.087 0-0.171 0.027-0.251 0.080-0.077 0.053-0.145 0.125-0.204 0.216-0.059 0.087-0.107 0.192-0.144 0.314-0.034 0.119-0.051 0.245-0.051 0.38 0 0.128 0.016 0.25 0.047 0.366s0.078 0.219 0.139 0.309c0.062 0.088 0.14 0.158 0.233 0.211 0.096 0.053 0.209 0.080 0.34 0.080 0.167 0 0.323-0.030 0.465-0.089 0.143-0.062 0.273-0.141 0.391-0.234s0.222-0.195 0.312-0.305c0.090-0.113 0.166-0.217 0.228-0.314 0.065-0.1 0.115-0.186 0.149-0.258 0.037-0.075 0.059-0.122 0.065-0.141 0.013-0.031 0.033-0.055 0.061-0.070 0.031-0.019 0.064-0.028 0.097-0.028 0.053 0 0.095 0.019 0.126 0.056 0.034 0.038 0.051 0.080 0.051 0.127 0 0.019-0.006 0.044-0.019 0.075z"></path>
</symbol>
<symbol id="icon-user" viewBox="0 0 32 32">
<path d="M18 22.082v-1.649c2.203-1.241 4-4.337 4-7.432 0-4.971 0-9-6-9s-6 4.029-6 9c0 3.096 1.797 6.191 4 7.432v1.649c-6.784 0.555-12 3.888-12 7.918h28c0-4.030-5.216-7.364-12-7.918z"></path>
</symbol>
<symbol id="icon-search" viewBox="0 0 32 32">
<path d="M31.008 27.231l-7.58-6.447c-0.784-0.705-1.622-1.029-2.299-0.998 1.789-2.096 2.87-4.815 2.87-7.787 0-6.627-5.373-12-12-12s-12 5.373-12 12 5.373 12 12 12c2.972 0 5.691-1.081 7.787-2.87-0.031 0.677 0.293 1.515 0.998 2.299l6.447 7.58c1.104 1.226 2.907 1.33 4.007 0.23s0.997-2.903-0.23-4.007zM12 20c-4.418 0-8-3.582-8-8s3.582-8 8-8 8 3.582 8 8-3.582 8-8 8z"></path>
</symbol>
<symbol id="icon-cross" viewBox="0 0 32 32">
<path d="M31.708 25.708c-0-0-0-0-0-0l-9.708-9.708 9.708-9.708c0-0 0-0 0-0 0.105-0.105 0.18-0.227 0.229-0.357 0.133-0.356 0.057-0.771-0.229-1.057l-4.586-4.586c-0.286-0.286-0.702-0.361-1.057-0.229-0.13 0.048-0.252 0.124-0.357 0.228 0 0-0 0-0 0l-9.708 9.708-9.708-9.708c-0-0-0-0-0-0-0.105-0.104-0.227-0.18-0.357-0.228-0.356-0.133-0.771-0.057-1.057 0.229l-4.586 4.586c-0.286 0.286-0.361 0.702-0.229 1.057 0.049 0.13 0.124 0.252 0.229 0.357 0 0 0 0 0 0l9.708 9.708-9.708 9.708c-0 0-0 0-0 0-0.104 0.105-0.18 0.227-0.229 0.357-0.133 0.355-0.057 0.771 0.229 1.057l4.586 4.586c0.286 0.286 0.702 0.361 1.057 0.229 0.13-0.049 0.252-0.124 0.357-0.229 0-0 0-0 0-0l9.708-9.708 9.708 9.708c0 0 0 0 0 0 0.105 0.105 0.227 0.18 0.357 0.229 0.356 0.133 0.771 0.057 1.057-0.229l4.586-4.586c0.286-0.286 0.362-0.702 0.229-1.057-0.049-0.13-0.124-0.252-0.229-0.357z"></path>
</symbol>
<symbol id="icon-ctrl" viewBox="0 0 32 32">
<path d="M23 14c-0.278 0-0.555-0.116-0.753-0.341l-6.247-7.14-6.247 7.14c-0.364 0.416-0.995 0.458-1.411 0.094s-0.458-0.995-0.094-1.411l7-8c0.19-0.217 0.464-0.341 0.753-0.341s0.563 0.125 0.753 0.341l7 8c0.364 0.416 0.322 1.047-0.094 1.411-0.19 0.166-0.424 0.247-0.658 0.247z"></path>
</symbol>
</defs>
</svg>
